<?xml version="1.0" encoding="UTF-8"?><svg xmlns="http://www.w3.org/2000/svg" xmlns:xlink="http://www.w3.org/1999/xlink" viewBox="0 0 299 44.09"><defs><style>.f{fill:none;}.g{fill:#033f85;}.h{clip-path:url(#e);}.i{clip-path:url(#d);}</style><clipPath id="d"><rect class="f" width="299" height="44.09"/></clipPath><clipPath id="e"><rect class="f" width="299" height="44.09"/></clipPath></defs><g id="a"/><g id="b"><g id="c"><g class="i"><path class="g" d="M8.98,23.19l2.86-9.34,2.52,9.34h-5.38Zm5.38-15.14H4.86v2.21h.8c.99,0,1.53,.39,1.53,1.15,0,.5-.11,.91-.5,2.06L0,33.49H6.19l1.83-6.14h7.25l1.72,6.14h6.72l-6.67-23.42c-.38-1.38-1.22-2.02-2.67-2.02"/><path class="g" d="M29.53,8.05h-5.87v2.21h.38c.99,0,1.41,.42,1.41,1.42v21.82h5.99V10c0-1.22-.72-1.95-1.9-1.95"/><path class="g" d="M39.71,8.05h-5.87v2.21h.37c1,0,1.42,.42,1.42,1.42v21.82h5.99V10c0-1.22-.73-1.95-1.91-1.95"/><path class="g" d="M48.63,7.63c-2.14,0-3.44,1.03-3.44,2.74s1.3,2.75,3.44,2.75,3.43-1.02,3.43-2.75-1.26-2.74-3.43-2.74"/><path class="g" d="M50.04,14.42h-5.8v2.17h.34c.99,0,1.41,.46,1.41,1.45v15.45h5.96V16.36c0-1.22-.73-1.94-1.91-1.94"/><path class="g" d="M65.07,28.04c-1,1.03-2.21,1.65-3.24,1.65s-1.45-.53-1.45-1.96,.3-2.05,1.37-2.47c.8-.35,1.83-.65,3.32-.93v3.71Zm5.76,1.72v-9.08c0-4.84-1.68-6.53-6.53-6.53-1.56,0-3.09,.2-4.57,.54-1.5,.34-2.26,.64-4.04,1.52l1.33,3.67c1.99-.95,4.16-1.49,5.88-1.49,1.61,0,2.18,.57,2.18,2.24v.43c-2.44,.39-3.2,.54-4.58,.85-.79,.19-1.53,.41-2.25,.72-2.41,.97-3.54,2.82-3.54,5.68,0,3.62,1.56,5.38,4.8,5.38,1.18,0,2.25-.23,3.21-.6,.84-.37,1.33-.68,2.56-1.64v.26c0,1.18,.61,1.79,1.79,1.79h5.45v-2.05h-.27c-1.03,0-1.41-.46-1.41-1.68"/><path class="g" d="M87.15,14.19c-2.33,0-3.97,.72-6.17,2.78v-.76c0-1.19-.62-1.8-1.84-1.8h-5.65v2.17h.34c.99,0,1.42,.45,1.42,1.45v15.45h5.95v-12.9c1-1.11,2.02-1.61,3.21-1.61,1.26,0,1.57,.5,1.57,2.42v12.09h5.95v-12.97c0-3.02-.22-3.97-1.18-5-.8-.88-2.02-1.34-3.59-1.34"/><path class="g" d="M109.2,18.36v-3.94h-12.44c-1.41,0-2.06,.65-2.06,2.06v3.47h2.21v-.34c0-.88,.46-1.3,1.41-1.3h4.28l-8.01,11.26v3.93h14.99v-4.01h-8.32l7.94-11.13Z"/><path class="g" d="M138,38.46c-9.39,0-16.22-6.91-16.22-16.41s6.83-16.41,16.22-16.41,16.22,6.95,16.22,16.41-6.83,16.41-16.22,16.41m0-35.95c-11.18,0-19.54,8.37-19.54,19.54s8.35,19.53,19.54,19.53,19.53-8.35,19.53-19.53-8.36-19.54-19.53-19.54"/><path class="g" d="M127.08,16.22v16.79h5.61V13.92h-3.32c-1.64,0-2.29,.61-2.29,2.29"/><path class="g" d="M146.62,13.92h-3.31v19.09h5.61V16.22c0-1.68-.65-2.29-2.29-2.29"/><path class="g" d="M138.54,9.15h-5.05v2.41h.3c1.15,0,1.38,.26,1.38,1.65v19.8h5.65V11.45c0-1.72-.61-2.3-2.28-2.3"/></g><rect class="g" x="177.12" width="1.32" height="44.09"/><g class="h"><path class="g" d="M298.29,32.3h-5.26c-.49-.93-1.49-1.54-3.1-1.59v-4.27h-1.91v4.26h-3.35l.03,1.59h-.97l.04-1.59h-3.42l.04,1.59h-.76V12.73h8.38v5.88h1.91v-5.88h8.36v19.57Zm-8.94,3.22c-.48,0-.93,0-1.3-.02l.03-1.76c.37-.02,.76-.02,1.06-.02,.9,0,1.13,.44,1.13,1s-.35,.79-.92,.79m-.13-4.82h-.48v-3.55h.48v3.55Zm-17.26,1.44c-.97-1.1-2.51-1.66-4.51-1.66-1.43,0-2.84,.43-3.93,1.36-.8-.2-1.47-.48-2.02-.86v-.28h-.37c-1.47-1.23-1.96-3.3-1.96-6.62v-3.04c0-6.68,1.83-8.32,9.32-8.32s9.32,1.82,9.32,5.19v1.9c0,3.07-1.42,4.58-4.35,4.62-1.72,.02-2.7-.22-3.3-.81-.65-.64-.93-1.8-.93-3.77v-1.53h-1.64v1.53c0,2.56,.45,4.14,1.45,5.13,.92,.91,2.29,1.3,4.44,1.26,1.5-.02,2.96-.38,4.34-1.07v5.92c-.17,.05-.43,.13-.78,.21l.02-.6h-3.45l.02,1.25c-.52,.07-1.08,.14-1.68,.19m-4.54,6.12c-1.8,0-2.5-.76-2.5-1.9,0-1.42,.76-2.26,2.38-2.26,1.8,0,2.5,.76,2.5,1.92,0,1.42-.81,2.24-2.38,2.24m-9.35-7.56v-10.61c0-3.89-.81-6.05-3.26-7.14l1.66,.2-.17-5.23c.28-.12,.7-.21,1.08-.21,.64,0,.93,.34,.91,1.05l-.07,4.39h3.32c-2.31,1.24-3.08,3.64-3.08,7.88v3.04c0,3.11,.46,5.23,1.67,6.62h-2.07Zm-9.07,1.59v-3.13h-1.91v3.13h-8.38v-12.2c0-5.92,1.83-7.37,9.32-7.37s9.32,1.45,9.32,7.37v10.61h-3.93v1.59h-4.42Zm-1.26-22.8l1.62-.18v1.09c-.51,.18-1.08,.31-1.54,.31-.69,0-.96-.27-.96-.64,0-.34,.24-.51,.88-.58m-14.06,2.99l-.14-4.55c.27-.12,.66-.21,1-.21,.58,0,.85,.34,.84,1.05l-.07,4.29c-.46-.24-1-.43-1.62-.58m3.21,5.47v2c0,3.37-1.54,5.2-9.7,5.2h-.35v1.72h.35c3.87,0,7.12-.52,9.7-1.56v5.93c-.92,.25-4.35,1.07-9.32,1.07-7.41,0-9.32-1.69-9.32-8.21v-3.04c0-6.68,1.83-8.32,9.32-8.32s9.32,.98,9.32,5.23m-16.77-10.94c.72,0,1.26,.33,1.33,1.18l-3.01,.13c.07-.87,.61-1.32,1.68-1.32m78.89,5h-9.78v5.88h-.48v-5.88h-9.8v20.99h1.49l.07,3.05c.02,1.35-.27,2.19-1.76,2.19-1.34,0-1.77-.63-1.82-2.11l.11-4.09c.78-.19,1.22-.34,1.27-.36l.24-.08v-7.63l-.53,.3c-1.43,.81-2.96,1.23-4.53,1.25-1.94,.03-3.15-.3-3.93-1.06-.85-.83-1.24-2.3-1.24-4.62v-.82h.22v.82c0,2.2,.34,3.48,1.15,4.28,.75,.74,1.89,1.04,3.81,1.02,3.31-.04,5.05-1.89,5.05-5.33v-1.9c0-4.35-2.63-5.9-10.04-5.9-3.16,0-5.4,.31-6.95,1.15l-.09-5.6c-.04-2.45-1.39-3.08-2.54-3.08s-2.08,.61-2.93,1.45l-.3-1.3h-2.65l.14,2.12v5.68c-.22-.05-.45-.09-.68-.13l-.09-4.13c-.06-2.64-1.09-3.76-4.42-3.76-1.08,0-2.08,.1-3.04,.25v3.02c.91-.12,2.14-.24,2.99-.24,1.08,0,1.41,.32,1.42,.9l-2.35,.1c-1.89,.08-3.01,.9-3.01,2.62,0,.44,.09,.81,.24,1.13-.18,.02-.36,.05-.53,.08l-.07-4.72c-.05-2.45-1.39-3.08-2.55-3.08-1.08,0-2.01,.64-2.83,1.5-.46-1.15-1.41-1.5-2.26-1.5-1.06,0-1.96,.61-2.79,1.45l-.3-1.3h-2.65l.14,2.12v5.32c-.68-.03-1.43-.05-2.23-.06l-.11-3.62c.37-.09,1.02-.15,1.94-.15v-3.74c-.12-.01-.33-.03-.45-.03-.73,0-1.27,.85-1.75,2.02l-.54-1.87h-2.65l.13,2.12v5.37c-.28,.02-.55,.05-.82,.09v-2.39c-.93,.49-2.25,.78-3.53,.78-1.08,0-1.68-.48-1.89-1.27l5.61,.03c.04-.46,.07-.94,.07-1.36,0-2.33-1.12-3.59-3.68-3.59s-4.85,1.35-4.85,4.58c0,2.84,1.69,4.34,4.61,4.37-2.05,1.29-2.75,3.66-2.75,7.69v3.04c0,6.92,2.25,8.92,10.03,8.92,5.95,0,9.63-1.12,9.78-1.17l.25-.08v-6.99l-.04-.53-.5,.22c-2.46,1.09-5.66,1.66-9.52,1.69v-.29c7.32-.05,10.06-1.67,10.06-5.91v-2c0-2.45-.62-3.93-2.12-4.79h3.15l-.09-5.19c.29-.14,.72-.24,1.09-.24,.58,0,.85,.34,.84,1.05l-.07,4.39,.64-.1c-2.28,1.12-3.04,3.26-3.04,7.03v12.91h9.81v-3.13h.49v3.13h5.13v1.24h2.42l-.11,7.43h3.45l-.11-7.43h2.45v-2.44c.43,.24,.91,.44,1.45,.6-.84,.99-1.37,2.38-1.37,4.24,0,3.46,2.13,5.25,5.65,5.25,2.96,0,5.88-1.84,5.88-6.22,0-1.14-.24-2.1-.68-2.87,.43-.04,.83-.09,1.21-.14l.07,3.57c-.14,4.04,1.19,5.67,4.8,5.67,3.32,0,5.23-1.34,5.12-5.78l.07-3.13h1l.06,3.24-.1,5.43h3.45l-.06-3.8c.19,.03,.4,.05,.61,.06l1.87,3.74h3.78v-.08l-2.58-4.27c1.03-.64,1.64-1.81,1.64-3.45,0-.31-.03-.6-.1-.87h5.7V12.02Z"/><path class="g" d="M214.81,22.8c1.11,.84,1.6,2,1.6,3.75v.52c-.04,4.3-1.69,5.23-9.32,5.23h-9.32V12.73h9.32c7.63,0,9.29,.93,9.32,5.23v.53c0,1.75-.49,2.9-1.6,3.75l-.37,.28,.37,.28Zm2.31-4.31v-.53c-.03-3.07-.95-4.59-3.32-5.32,.99-.65,1.59-1.75,1.59-3.48,0-.43-.04-1.38-.12-1.9h-4.4v1.99h2.01c-.27,.6-.94,.9-2.04,.9-1.35,0-1.86-.79-1.86-1.89,0-1.32,.73-2.13,2.44-2.13,1.5,0,2.54,.31,3.34,.64V3.38c-1.14-.39-2.05-.55-3.46-.55-2.81,0-5.57,1.71-5.57,5.78,0,1.47,.41,2.62,1.18,3.42h-9.86v20.99h10.03c7.49,0,9.99-.86,10.03-5.94v-.53c0-1.78-.49-3.08-1.54-4.03,1.05-.95,1.54-2.25,1.54-4.03"/></g><path class="g" d="M206.84,24.76h.48v3.45h-.48v-3.45Zm-.71,4.15h1.91v-4.86h-1.91v4.86Z"/><path class="g" d="M206.84,16.82h.48v3.45h-.48v-3.45Zm-.71,4.15h1.91v-4.86h-1.91v4.86Z"/><path class="g" d="M227.33,18.08h.48v3.86h-.48v-3.86Zm-.71,4.57h1.91v-5.28h-1.91v5.28Z"/><path class="g" d="M247.8,19.03h.48v4.83h-.48v-4.83Zm-.71,5.54h1.91v-6.25h-1.91v6.25Z"/></g></g></svg>